<svg xmlns="http://www.w3.org/2000/svg" width="50" height="50" viewBox="0 0 50.000001 50.000001"><defs><filter id="a" x="-.013" width="1.026" y="-.011" height="1.022" color-interpolation-filters="sRGB"><feGaussianBlur stdDeviation=".062"/></filter></defs><path d="M24.89.184L3.453 12.686l.11 24.817 21.548 12.315 21.436-12.505-.042-9.362h-4.803l.028 6.61-16.645 9.708-16.73-9.56L8.27 15.44l16.643-9.71 16.732 9.56.035 7.842h4.803l-.047-10.637L24.89.184z" fill="#3498db"/><path d="M23.79 31.927l-5.73 3.343-5.762-3.292-.03-6.635L18 22l5.76 3.292zM37.408 31.968l-5.731 3.343-5.76-3.292-.03-6.634 5.73-3.343 5.761 3.291z" fill="#fff"/><path d="M30.76 1022.404l-5.73 3.343-5.761-3.292-.03-6.635 5.731-3.343 5.761 3.292z" fill="#fff" filter="url(#a)" transform="translate(0 -1002.362)"/><path d="M30.76 1030.404l-5.73 3.343-5.761-3.292-.03-6.635 5.731-3.343 5.761 3.292z" transform="rotate(90 526.056 526.056)" fill="#3498db" filter="url(#a)"/></svg>